<svg width="437" height="282" viewBox="0 0 437 282" fill="none" xmlns="http://www.w3.org/2000/svg">
<path d="M71.3987 191.199C71.3987 191.199 71.1098 191.304 70.9521 191.409H104.577C181.361 180.37 259.617 176.962 336.69 186.112C338.371 186.322 341.235 186.689 343.047 186.951C254.836 170.407 160.425 176.307 71.3987 191.199Z" fill="white"/>
<path d="M239.022 106.172C243.409 106.041 247.612 103.209 248.268 100.037C248.768 97.6246 246.771 96.104 243.409 96.2088C239.022 96.3399 234.661 99.1978 234.031 102.239C233.532 104.651 235.659 106.251 239.022 106.172Z" fill="white"/>
<path d="M366.952 133.911C365.901 133.649 351.217 129.742 327.26 132.05C326.76 126.072 322.741 119.019 312.102 120.094C301.621 121.143 292.243 126.727 285.176 136.218C284.467 137.188 283.18 139.102 281.972 141.515C268.443 146.968 248.925 156.381 248.925 156.381C248.925 156.381 249.162 155.856 257.699 138.473C259.538 134.724 262.112 130.031 265.028 124.944C286.175 120.671 306.165 116.528 306.454 115.847L306.507 115.689L306.428 115.558C306.297 115.27 306.113 114.955 277.348 117.472C274.511 117.708 271.674 117.97 268.916 118.206C278.898 101.321 290.457 83.283 290.457 83.283C290.457 83.283 283.732 83.047 279.923 85.6689C279.923 85.6689 270.124 101.426 260.51 118.967L256.648 119.307C252.13 119.727 249.083 120.015 248.794 120.042C247.927 120.042 247.402 120.199 247.165 120.645C246.745 121.51 247.769 122.926 248.951 124.551C249.372 125.128 249.792 125.731 250.16 126.282C250.501 126.832 250.817 127.225 251.132 127.514C252.288 127.278 253.995 126.963 256.412 126.544C253.417 132.233 250.58 137.896 248.242 143.088C246.403 146.889 244.775 150.298 243.514 153.129C234.162 157.088 221.395 162.594 218.059 157.298C210.966 146.05 239.284 112.753 239.284 112.753C239.284 112.753 234.346 112.595 230.537 114.195C228.593 114.64 226.78 116.948 222.814 121.641C218.427 126.806 201.168 140.204 201.168 140.204C201.168 140.204 211.544 136.979 218.217 132.155C214.749 138.447 211.387 145.552 209.732 151.818C200.721 155.515 182.438 164.194 181.125 157.298C177.736 139.417 226.176 69.5707 226.176 69.5707C226.176 69.5707 219.451 69.3347 215.642 71.9566C215.642 71.9566 179.47 131.892 173.191 150.743C169.067 152.631 115.268 173.711 104.183 159.553C102.685 157.639 101.897 155.437 102.396 152.474C102.948 149.118 105.811 141.908 109.673 135.563C109.988 134.829 112.484 130.791 114.401 127.776C115.951 127.514 117.737 127.252 119.813 126.937C150.285 121.221 181.519 115.27 181.939 114.378L182.018 114.195L181.913 114.037C181.729 113.697 181.492 113.303 143.429 116.397C136.809 116.921 130.189 117.472 124.357 117.97L120.574 118.285L126.564 109.161C129.532 104.52 139.225 90.4145 141.091 88.6054C142.299 87.3731 142.982 87.242 143.98 87.0323C146.66 86.5341 149.575 86.2719 153.017 85.9311C159.926 84.7775 168.857 83.4141 172.929 83.047C175.713 82.7849 176.58 82.9946 176.79 83.2306C176.79 83.2306 176.869 83.3092 176.843 83.519C176.843 83.7287 176.422 84.5939 175.739 85.3805C175.661 85.4854 175.345 85.8 175.162 85.9573C174.689 86.403 174.4 86.6914 174.347 87.0585V87.5042L174.584 87.714C174.951 88.081 175.634 88.081 176.134 88.0286C177.815 87.8713 198.646 78.2228 199.093 77.0954C200.879 74.0541 197.28 74.2638 197.28 74.2638L147.159 79.9008C147.316 79.5075 147.579 79.088 148.183 78.3801L148.393 78.1179L148.288 77.8033C147.5 75.0766 145.451 74.2638 143.98 74.3949C142.982 74.4998 142.141 75.2077 141.774 76.2302C141.642 76.5186 141.511 76.7808 141.406 77.043C140.854 78.249 140.434 79.2191 139.12 79.927C137.255 80.9496 134.786 81.3166 118.919 83.047C116.266 83.283 113.744 83.519 111.38 83.886C108.333 84.4104 107.046 85.4592 107.125 87.4518C107.256 88.2383 107.519 88.9462 108.99 89.3133C109.41 90.6242 109.962 90.8864 110.829 90.9651C112.405 91.3846 113.639 91.2797 115.399 91.0962H115.767L115.925 90.7291C116.056 90.4669 116.24 90.2047 116.424 89.9425C116.529 89.8114 116.608 89.6804 116.687 89.5493C118.42 88.8151 121.757 88.1335 125.04 87.8188C126.669 87.6615 131.003 87.2682 131.949 88.2645C132.054 88.3694 132.133 88.5005 132.107 88.7889C132.001 89.6017 131.502 90.8864 130.819 92.0925C128.035 96.6021 120.574 107.929 113.35 118.862C108.858 119.255 105.969 119.491 105.654 119.517C104.524 119.517 103.788 119.727 103.526 120.251C102.974 121.3 104.314 123.057 105.89 125.075C106.442 125.783 106.993 126.518 107.492 127.225C107.545 127.33 107.624 127.383 107.676 127.461C106.704 128.956 105.732 130.372 104.839 131.735C99.9007 139.181 91.3369 155.594 90.4963 158.793C83.5876 184.592 151.966 165.138 172.036 155.515C170.17 168.415 180.52 167.55 189.426 164.351C194.233 162.621 203.217 158.347 209.075 154.938C206.816 168.441 217.35 167.602 226.36 164.351C230.09 163.014 236.342 160.13 241.701 157.324C239.626 162.28 236.71 169.673 236.71 169.673C236.71 169.673 246.403 162.83 279.292 148.672C277.69 155.673 279.187 163.381 291.586 166.186C307.637 169.831 330.464 153.26 329.624 151.242C329.177 150.193 292.584 175.808 287.62 152.054C287.278 150.429 287.304 148.41 288.066 145.893C329.282 131.971 365.796 133.806 366.952 133.885V133.911ZM311.892 124.289C316.962 123.791 319.458 125.259 319.852 129.847C319.904 130.581 319.852 131.709 319.668 132.967C311.104 134.173 301.568 136.192 291.218 139.338C294.633 134.173 303.46 125.128 311.892 124.289Z" fill="white"/>
<path d="M317.199 88.1334V109.895C327.312 109.056 330.727 106.513 340.526 105.595V83.8074C330.858 84.725 327.89 87.3207 317.199 88.1334ZM335.587 98.9093H330.911V103.576H326.787V98.9093H322.111V94.793H326.787V90.1261H330.911V94.793H335.587V98.9093Z" fill="white"/>
<path d="M99.4541 202.604H98.8236C98.9024 202.263 98.9024 202.079 98.9024 201.843C98.9024 200.349 97.9305 199.458 96.3018 199.458C94.6731 199.458 93.2546 200.428 93.2546 201.634C93.2546 202.158 93.5435 202.578 94.0952 202.971C94.4104 203.198 95.1897 203.626 96.4331 204.256C98.5084 205.357 99.1126 206.038 99.1126 207.271C99.1126 209.578 96.5382 211.466 93.4647 211.466C91.7047 211.466 90.47 210.994 88.9202 209.788L89.682 206.956H90.3387C90.2599 207.376 90.2336 207.612 90.2336 207.926C90.2336 209.683 91.3632 210.732 93.2546 210.732C95.1459 210.732 96.6958 209.499 96.6958 207.952C96.6958 207.192 96.3018 206.773 94.8307 206.012C92.9919 205.042 92.519 204.78 92.0462 204.413C91.2318 203.784 90.8903 203.207 90.8903 202.446C90.8903 200.401 93.202 198.776 96.0916 198.776C97.0898 198.776 97.8779 198.933 98.8236 199.3C99.1651 199.431 99.4541 199.51 99.6117 199.51C99.8218 199.51 100.032 199.458 100.4 199.274L99.4541 202.604Z" fill="white"/>
<path d="M103.105 211.518L102.817 202.709C102.79 201.87 102.528 201.607 101.634 201.581L101.792 201.083C102.711 201.162 103.237 201.188 104.104 201.188C104.971 201.188 105.522 201.162 106.494 201.083L106.337 201.581C105.076 201.66 104.892 201.817 104.918 202.656V208.372L109.778 200.847H110.513L110.829 208.372L113.902 203.469C114.322 202.761 114.611 202.184 114.611 201.975C114.611 201.739 114.401 201.634 113.981 201.634C113.902 201.634 113.771 201.634 113.587 201.66L113.508 201.214C114.454 201.214 115.452 201.004 115.951 200.716C116.004 200.847 116.03 200.926 116.03 201.031C116.03 201.293 115.925 201.555 115.61 202.027C115.347 202.446 115.189 202.682 115.163 202.761C115.058 202.918 114.953 203.076 114.848 203.233L109.515 211.571H109.121L108.858 203.39L103.5 211.544H103.105V211.518Z" fill="white"/>
<path d="M118.998 211.282C117.921 211.203 117.396 211.177 116.582 211.177C115.767 211.177 115.189 211.203 114.06 211.282L114.217 210.784C115.504 210.732 115.767 210.6 116.004 209.735L118.131 202.578C118.21 202.289 118.236 202.158 118.236 202.027C118.236 201.686 117.948 201.581 116.976 201.555L117.133 201.057C118.21 201.136 118.788 201.162 119.576 201.162C120.364 201.162 120.942 201.136 122.045 201.057L121.914 201.555C120.653 201.607 120.417 201.739 120.154 202.604L118.026 209.761C117.974 209.971 117.948 210.181 117.948 210.338C117.948 210.679 118.21 210.758 119.182 210.81L119.025 211.308L118.998 211.282Z" fill="white"/>
<path d="M129.558 204.098H129.033C129.086 203.836 129.112 203.679 129.112 203.469C129.112 202.237 128.324 201.503 126.958 201.503C125.592 201.503 124.436 202.315 124.436 203.312C124.436 203.731 124.672 204.098 125.119 204.413C125.382 204.588 126.021 204.946 127.037 205.488C128.744 206.405 129.243 206.956 129.243 207.979C129.243 209.866 127.115 211.466 124.594 211.466C123.149 211.466 122.124 211.099 120.837 210.076L121.468 207.743H122.019C121.94 208.083 121.94 208.293 121.94 208.555C121.94 210.024 122.86 210.889 124.436 210.889C126.012 210.889 127.273 209.866 127.273 208.608C127.273 207.979 126.958 207.638 125.723 207.008C124.2 206.196 123.832 205.986 123.411 205.698C122.755 205.173 122.44 204.701 122.44 204.072C122.44 202.368 124.331 201.031 126.721 201.031C127.536 201.031 128.192 201.162 128.981 201.45C129.243 201.555 129.506 201.607 129.637 201.607C129.821 201.607 129.979 201.555 130.294 201.398L129.506 204.151L129.558 204.098Z" fill="white"/>
<path d="M138.989 204.098H138.464C138.516 203.836 138.542 203.679 138.542 203.469C138.542 202.237 137.754 201.503 136.388 201.503C135.022 201.503 133.867 202.315 133.867 203.312C133.867 203.731 134.103 204.098 134.55 204.413C134.812 204.588 135.451 204.946 136.467 205.488C138.175 206.405 138.674 206.956 138.674 207.979C138.674 209.866 136.546 211.466 134.024 211.466C132.579 211.466 131.555 211.099 130.268 210.076L130.898 207.743H131.45C131.371 208.083 131.371 208.293 131.371 208.555C131.371 210.024 132.29 210.889 133.867 210.889C135.443 210.889 136.704 209.866 136.704 208.608C136.704 207.979 136.388 207.638 135.154 207.008C133.63 206.196 133.262 205.986 132.842 205.698C132.185 205.173 131.87 204.701 131.87 204.072C131.87 202.368 133.761 201.031 136.152 201.031C136.966 201.031 137.623 201.162 138.411 201.45C138.674 201.555 138.936 201.607 139.068 201.607C139.252 201.607 139.409 201.555 139.725 201.398L138.936 204.151L138.989 204.098Z" fill="white"/>
<path d="M153.017 205.698L153.936 202.604C154.015 202.289 154.041 202.184 154.041 202.053C154.041 201.712 153.752 201.607 152.78 201.581L152.938 201.083C154.015 201.162 154.567 201.188 155.407 201.188C156.248 201.188 156.826 201.162 157.877 201.083L157.719 201.581C156.458 201.634 156.222 201.765 155.933 202.63L153.805 209.788C153.726 210.024 153.7 210.207 153.7 210.338C153.7 210.679 153.962 210.784 154.961 210.81L154.803 211.308C153.779 211.23 153.253 211.204 152.386 211.204C151.519 211.204 150.968 211.23 149.864 211.308L150.022 210.81C151.283 210.758 151.519 210.627 151.756 209.788L152.807 206.248H148.446L147.369 209.788C147.29 210.102 147.264 210.207 147.264 210.338C147.264 210.679 147.527 210.784 148.498 210.81L148.341 211.308C147.264 211.23 146.712 211.204 145.872 211.204C145.031 211.204 144.479 211.23 143.429 211.308L143.586 210.81C144.873 210.758 145.136 210.627 145.372 209.788L147.5 202.63C147.579 202.368 147.605 202.211 147.605 202.079C147.605 201.739 147.316 201.634 146.344 201.608L146.502 201.109C147.527 201.188 148.052 201.214 148.892 201.214C149.733 201.214 150.311 201.188 151.441 201.109L151.283 201.608C150.022 201.66 149.786 201.791 149.549 202.656L148.63 205.75H153.043L153.017 205.698Z" fill="white"/>
<path d="M159.505 208.424L158.586 209.709C158.323 210.05 158.218 210.312 158.218 210.443C158.218 210.705 158.428 210.784 159.295 210.81L159.137 211.308C158.349 211.256 157.929 211.23 157.377 211.23C156.826 211.23 156.405 211.23 155.591 211.308L155.749 210.81C156.826 210.758 157.193 210.548 158.06 209.342L164.601 200.716H164.812L165.836 209.735C165.915 210.548 166.204 210.784 167.281 210.836L167.123 211.335C166.151 211.256 165.6 211.23 164.706 211.23C163.813 211.23 163.209 211.256 162.211 211.335L162.368 210.836C163.498 210.784 163.734 210.679 163.734 210.181C163.734 210.05 163.734 209.971 163.734 209.84L163.656 208.451H159.584L159.505 208.424ZM163.524 207.9L163.209 203.469L159.925 207.9H163.524Z" fill="white"/>
<path d="M176.685 211.518L172.193 202.394L170.276 208.922C170.065 209.578 169.96 210.102 169.96 210.26C169.96 210.653 170.197 210.784 171.142 210.81L170.985 211.308C170.17 211.256 169.75 211.256 169.198 211.256C168.647 211.256 168.227 211.256 167.412 211.308L167.57 210.81C168.489 210.758 168.857 210.548 169.172 209.971C169.356 209.63 169.566 208.975 170.249 206.641L171.615 202.079C171.3 201.712 170.958 201.555 170.276 201.555L170.433 201.057C171.09 201.083 171.458 201.109 172.036 201.109C172.613 201.109 172.955 201.109 173.585 201.057L177.237 208.372L178.892 202.709C178.971 202.473 179.023 202.184 179.023 202.053C179.023 201.686 178.76 201.581 177.788 201.529L177.946 201.031C178.734 201.083 179.154 201.083 179.732 201.083C180.31 201.083 180.704 201.083 181.519 201.031L181.361 201.529C180.153 201.581 179.837 201.791 179.522 202.814L176.922 211.466H176.659L176.685 211.518Z" fill="white"/>
<path d="M182.543 201.136H187.245C189.058 201.136 190.004 201.345 190.713 201.844C191.553 202.447 191.974 203.364 191.974 204.623C191.974 206.615 191.081 208.477 189.504 209.709C188.165 210.758 186.536 211.256 184.277 211.256H179.575L179.732 210.758C181.02 210.705 181.256 210.574 181.519 209.709L183.62 202.656C183.699 202.447 183.725 202.211 183.725 202.106C183.725 201.765 183.436 201.634 182.464 201.608L182.622 201.109L182.543 201.136ZM183.463 209.814C183.358 210.181 183.331 210.26 183.331 210.338C183.331 210.627 183.541 210.732 184.172 210.732C185.695 210.732 186.667 210.469 187.403 209.893C188.848 208.713 189.951 206.222 189.951 204.046C189.951 202.315 189.189 201.686 187.114 201.686H185.932L183.515 209.84L183.463 209.814Z" fill="white"/>
<path d="M194.102 209.761C194.023 209.997 193.996 210.155 193.996 210.286C193.996 210.653 194.259 210.758 195.205 210.81L195.047 211.282C194.259 211.23 193.891 211.23 193.34 211.23C192.788 211.23 192.368 211.23 191.501 211.282L191.659 210.81C192.447 210.732 192.867 210.496 193.156 210.076C193.419 209.683 193.524 209.316 194.653 206.091L195.835 202.63C195.914 202.42 195.94 202.263 195.94 202.079C195.94 201.739 195.651 201.634 194.679 201.608L194.837 201.109C195.546 201.162 195.862 201.162 196.492 201.162C197.201 201.162 197.674 201.162 198.462 201.083L199.487 208.346L204.819 201.083C205.712 201.136 206.185 201.162 206.842 201.162C207.42 201.162 207.761 201.162 208.497 201.109L208.339 201.608C207.078 201.66 206.79 201.817 206.553 202.656L204.688 209.447C204.609 209.709 204.53 210.181 204.53 210.286C204.53 210.653 204.793 210.81 205.765 210.836L205.607 211.308C204.53 211.23 203.952 211.204 203.164 211.204C202.376 211.204 201.772 211.23 200.643 211.308L200.8 210.836C202.087 210.784 202.35 210.627 202.586 209.788L204.924 201.843L198.2 210.968H197.937L196.676 201.843L194.075 209.788L194.102 209.761Z" fill="white"/>
<path d="M210.204 208.424L209.285 209.709C209.022 210.05 208.917 210.312 208.917 210.443C208.917 210.705 209.127 210.784 209.994 210.81L209.837 211.308C209.049 211.256 208.628 211.23 208.077 211.23C207.525 211.23 207.105 211.23 206.29 211.308L206.448 210.81C207.525 210.758 207.893 210.548 208.76 209.342L215.301 200.716H215.511L216.535 209.735C216.614 210.548 216.903 210.784 217.98 210.836L217.823 211.335C216.851 211.256 216.299 211.23 215.406 211.23C214.513 211.23 213.908 211.256 212.91 211.335L213.068 210.836C214.197 210.784 214.434 210.679 214.434 210.181C214.434 210.05 214.434 209.971 214.434 209.84L214.355 208.451H210.283L210.204 208.424ZM214.224 207.9L213.908 203.469L210.625 207.9H214.224Z" fill="white"/>
<path d="M221.238 201.136H225.94C227.752 201.136 228.698 201.345 229.407 201.844C230.248 202.447 230.668 203.364 230.668 204.623C230.668 206.615 229.775 208.477 228.199 209.709C226.859 210.758 225.23 211.256 222.971 211.256H218.269L218.427 210.758C219.714 210.705 219.95 210.574 220.213 209.709L222.315 202.656C222.393 202.447 222.42 202.211 222.42 202.106C222.42 201.765 222.131 201.634 221.159 201.608L221.316 201.109L221.238 201.136ZM222.157 209.814C222.052 210.181 222.026 210.26 222.026 210.338C222.026 210.627 222.236 210.732 222.866 210.732C224.39 210.732 225.362 210.469 226.097 209.893C227.542 208.713 228.645 206.222 228.645 204.046C228.645 202.315 227.884 201.686 225.808 201.686H224.626L222.209 209.84L222.157 209.814Z" fill="white"/>
<path d="M238.68 211.23H230.248L230.405 210.732C231.693 210.679 231.929 210.548 232.192 209.683L234.293 202.63C234.372 202.394 234.398 202.211 234.398 202.079C234.398 201.739 234.136 201.634 233.137 201.608L233.295 201.109H241.386L241.071 203.626H240.572C240.572 203.626 240.572 203.39 240.572 203.364C240.572 201.975 240.178 201.634 238.575 201.634H236.631L235.449 205.645H239.206L239.022 206.274H235.265L234.241 209.63C234.109 210.129 234.109 210.155 234.109 210.26C234.109 210.548 234.425 210.679 235.108 210.679H236.158C237.262 210.679 237.813 210.469 238.496 209.84C238.89 209.447 239.179 209.08 239.521 208.555H240.02L238.706 211.23H238.68Z" fill="white"/>
<path d="M254.205 204.098H253.68C253.732 203.836 253.759 203.679 253.759 203.469C253.759 202.237 252.971 201.503 251.605 201.503C250.239 201.503 249.083 202.315 249.083 203.312C249.083 203.731 249.319 204.098 249.766 204.413C250.028 204.588 250.668 204.946 251.683 205.488C253.391 206.405 253.89 206.956 253.89 207.979C253.89 209.866 251.762 211.466 249.24 211.466C247.796 211.466 246.771 211.099 245.484 210.076L246.114 207.743H246.666C246.587 208.083 246.587 208.293 246.587 208.555C246.587 210.024 247.507 210.889 249.083 210.889C250.659 210.889 251.92 209.866 251.92 208.608C251.92 207.979 251.605 207.638 250.37 207.008C248.846 206.196 248.479 205.986 248.058 205.698C247.375 205.173 247.086 204.701 247.086 204.072C247.086 202.368 248.978 201.031 251.368 201.031C252.182 201.031 252.839 201.162 253.627 201.45C253.89 201.555 254.153 201.607 254.284 201.607C254.468 201.607 254.626 201.555 254.941 201.398L254.153 204.151L254.205 204.098Z" fill="white"/>
<path d="M259.091 211.282C258.014 211.203 257.489 211.177 256.675 211.177C255.86 211.177 255.282 211.203 254.153 211.282L254.31 210.784C255.597 210.732 255.86 210.6 256.097 209.735L258.224 202.578C258.303 202.289 258.329 202.158 258.329 202.027C258.329 201.686 258.041 201.581 257.069 201.555L257.226 201.057C258.303 201.136 258.881 201.162 259.669 201.162C260.457 201.162 261.035 201.136 262.138 201.057L262.007 201.555C260.746 201.607 260.51 201.739 260.247 202.604L258.119 209.761C258.067 209.971 258.041 210.181 258.041 210.338C258.041 210.679 258.303 210.758 259.275 210.81L259.118 211.308L259.091 211.282Z" fill="white"/>
<path d="M269.362 211.518L264.87 202.394L262.953 208.922C262.743 209.578 262.638 210.102 262.638 210.26C262.638 210.653 262.874 210.784 263.82 210.81L263.662 211.308C262.848 211.256 262.427 211.256 261.876 211.256C261.324 211.256 260.93 211.256 260.09 211.308L260.247 210.81C261.167 210.758 261.534 210.548 261.85 209.971C262.033 209.63 262.244 208.975 262.927 206.641L264.293 202.079C263.977 201.712 263.61 201.555 262.953 201.555L263.11 201.057C263.767 201.083 264.135 201.109 264.713 201.109C265.291 201.109 265.632 201.109 266.263 201.057L269.914 208.372L271.569 202.709C271.648 202.473 271.7 202.184 271.7 202.053C271.7 201.686 271.438 201.581 270.466 201.529L270.597 201.031C271.385 201.083 271.806 201.083 272.383 201.083C272.961 201.083 273.355 201.083 274.17 201.031L274.012 201.529C272.804 201.581 272.489 201.791 272.173 202.814L269.573 211.466H269.31L269.362 211.518Z" fill="white"/>
<path d="M282.287 207.69C281.656 210.102 279.818 211.492 277.296 211.492C274.774 211.492 273.224 210.155 273.224 207.9C273.224 206.143 273.96 204.308 275.115 202.997C276.376 201.608 277.952 200.9 279.844 200.9C280.79 200.9 281.236 200.978 282.366 201.45C282.602 201.529 282.839 201.608 282.97 201.608C283.18 201.608 283.311 201.555 283.653 201.398L282.917 204.256H282.366C282.366 204.125 282.366 203.967 282.366 203.915C282.366 202.342 281.551 201.476 280.001 201.476C278.557 201.476 277.401 202.237 276.455 203.757C275.693 204.99 275.194 206.668 275.194 208.031C275.194 209.63 276.14 210.548 277.769 210.548C279.607 210.548 280.947 209.526 281.578 207.69H282.234H282.287Z" fill="white"/>
<path d="M290.745 211.23H282.313L282.471 210.732C283.758 210.679 283.994 210.548 284.257 209.683L286.359 202.63C286.437 202.394 286.464 202.211 286.464 202.079C286.464 201.739 286.201 201.634 285.203 201.608L285.36 201.109H293.451L293.136 203.626H292.637C292.637 203.626 292.637 203.39 292.637 203.364C292.637 201.975 292.243 201.634 290.64 201.634H288.696L287.514 205.645H291.271L291.087 206.274H287.331L286.306 209.63C286.175 210.129 286.175 210.155 286.175 210.26C286.175 210.548 286.49 210.679 287.173 210.679H288.224C289.327 210.679 289.879 210.469 290.562 209.84C290.956 209.447 291.245 209.08 291.586 208.555H292.085L290.772 211.23H290.745Z" fill="white"/>
<path d="M302.803 209.552C302.724 209.788 302.672 210.05 302.672 210.181C302.672 210.6 303.039 210.732 304.143 210.784L303.985 211.282C302.803 211.203 302.199 211.177 301.279 211.177C300.36 211.177 299.73 211.203 298.495 211.282L298.652 210.784C300.202 210.732 300.491 210.548 300.833 209.447L302.75 202.997L300.885 203.076L301.043 202.604C302.593 202.525 304.064 201.87 304.799 200.926H305.377L302.829 209.552H302.803Z" fill="white"/>
<path d="M315.465 207.926C315.465 209.866 313.468 211.413 310.946 211.413C309.081 211.413 307.899 210.574 307.899 209.237C307.899 207.716 309.055 206.563 311.052 206.038C310.08 205.724 309.659 205.226 309.659 204.413C309.659 202.656 311.524 201.188 313.757 201.188C315.491 201.188 316.516 201.896 316.516 203.102C316.516 204.492 315.491 205.619 313.836 206.038C314.966 206.353 315.491 206.93 315.491 207.9L315.465 207.926ZM310.526 207.428C310.08 208.031 309.791 209.001 309.791 209.683C309.791 210.469 310.237 210.915 310.973 210.915C311.708 210.915 312.339 210.496 312.864 209.683C313.232 209.054 313.521 208.188 313.521 207.533C313.521 206.825 313.048 206.327 312.339 206.327C311.656 206.327 311.025 206.694 310.552 207.428H310.526ZM312.129 202.682C311.761 203.285 311.446 204.203 311.446 204.832C311.446 205.462 311.813 205.855 312.418 205.855C313.048 205.855 313.573 205.488 314.02 204.754C314.388 204.151 314.624 203.338 314.624 202.709C314.624 202.053 314.256 201.66 313.652 201.66C313.048 201.66 312.523 202.001 312.102 202.682H312.129Z" fill="white"/>
<path d="M317.855 211.571C319.641 210.548 321.034 209.421 322.373 207.926C321.848 208.136 321.48 208.188 321.007 208.188C319.405 208.188 318.407 207.244 318.407 205.75C318.407 204.623 318.906 203.443 319.773 202.578C320.666 201.66 321.848 201.188 323.188 201.188C325.158 201.188 326.366 202.211 326.366 203.862C326.366 205.514 325.368 207.14 323.372 208.765C322.084 209.814 320.193 211.02 318.985 211.518H317.855V211.571ZM321.218 203.128C320.692 204.046 320.351 205.226 320.351 206.17C320.351 207.113 320.797 207.585 321.559 207.585C322.321 207.585 322.925 207.192 323.45 206.327C324.002 205.488 324.475 203.967 324.475 203.076C324.475 202.237 323.95 201.686 323.188 201.686C322.426 201.686 321.769 202.158 321.191 203.154L321.218 203.128Z" fill="white"/>
<path d="M330.701 202.735L329.335 205.462C330.307 204.78 331.042 204.544 332.119 204.544C333.984 204.544 335.035 205.514 335.035 207.218C335.035 209.604 333.144 211.387 330.569 211.387C328.52 211.387 327.286 210.365 327.207 208.634H327.969C328.284 209.735 329.046 210.312 330.202 210.312C331.752 210.312 332.934 209.001 332.934 207.323C332.934 206.196 332.251 205.488 331.174 205.488C330.254 205.488 329.519 205.829 328.783 206.589L328.1 206.51L330.622 201.345H336.217L335.534 202.709H330.727L330.701 202.735Z" fill="white"/>
</svg>
